<svg xmlns="http://www.w3.org/2000/svg" xmlns:xlink="http://www.w3.org/1999/xlink" width="192" zoomAndPan="magnify" viewBox="0 0 144 143.999998" height="192" preserveAspectRatio="xMidYMid meet" version="1.0"><defs><g/></defs><g fill="#ff00ff" fill-opacity="1"><g transform="translate(5.92504, 79.369743)"><g><path d="M 47.609375 0 L 10.21875 0 C 8.988281 0 8.097656 -0.273438 7.546875 -0.828125 C 6.992188 -1.378906 6.71875 -2.269531 6.71875 -3.5 L 6.71875 -66.609375 C 6.71875 -67.835938 6.992188 -68.726562 7.546875 -69.28125 C 8.097656 -69.832031 8.988281 -70.109375 10.21875 -70.109375 L 41.28125 -70.109375 C 47.644531 -70.109375 52.351562 -68.890625 55.40625 -66.453125 C 58.457031 -64.023438 59.984375 -60.28125 59.984375 -55.21875 L 59.984375 -50.53125 C 59.984375 -47.8125 59.507812 -45.585938 58.5625 -43.859375 C 57.625 -42.140625 56.179688 -40.859375 54.234375 -40.015625 C 58.390625 -39.628906 61.472656 -38.203125 63.484375 -35.734375 C 65.492188 -33.265625 66.5 -29.660156 66.5 -24.921875 L 66.5 -15.96875 C 66.5 -10.519531 64.957031 -6.492188 61.875 -3.890625 C 58.789062 -1.296875 54.035156 0 47.609375 0 Z M 28.625 -53.5625 L 28.625 -43.046875 L 36.90625 -43.046875 C 38.132812 -43.046875 39.054688 -43.367188 39.671875 -44.015625 C 40.296875 -44.660156 40.609375 -45.632812 40.609375 -46.9375 L 40.609375 -49.65625 C 40.609375 -50.957031 40.296875 -51.929688 39.671875 -52.578125 C 39.054688 -53.234375 38.132812 -53.5625 36.90625 -53.5625 Z M 28.625 -28.046875 L 28.625 -16.546875 L 41.28125 -16.546875 C 42.519531 -16.546875 43.445312 -16.867188 44.0625 -17.515625 C 44.675781 -18.171875 44.984375 -19.148438 44.984375 -20.453125 L 44.984375 -24.25 C 44.984375 -25.539062 44.675781 -26.492188 44.0625 -27.109375 C 43.445312 -27.734375 42.519531 -28.046875 41.28125 -28.046875 Z M 28.625 -28.046875 "/></g></g></g><g fill="#00ffff" fill-opacity="1"><g transform="translate(10.999612, 74.637635)"><g><path d="M 47.609375 0 L 10.21875 0 C 8.988281 0 8.097656 -0.273438 7.546875 -0.828125 C 6.992188 -1.378906 6.71875 -2.269531 6.71875 -3.5 L 6.71875 -66.609375 C 6.71875 -67.835938 6.992188 -68.726562 7.546875 -69.28125 C 8.097656 -69.832031 8.988281 -70.109375 10.21875 -70.109375 L 41.28125 -70.109375 C 47.644531 -70.109375 52.351562 -68.890625 55.40625 -66.453125 C 58.457031 -64.023438 59.984375 -60.28125 59.984375 -55.21875 L 59.984375 -50.53125 C 59.984375 -47.8125 59.507812 -45.585938 58.5625 -43.859375 C 57.625 -42.140625 56.179688 -40.859375 54.234375 -40.015625 C 58.390625 -39.628906 61.472656 -38.203125 63.484375 -35.734375 C 65.492188 -33.265625 66.5 -29.660156 66.5 -24.921875 L 66.5 -15.96875 C 66.5 -10.519531 64.957031 -6.492188 61.875 -3.890625 C 58.789062 -1.296875 54.035156 0 47.609375 0 Z M 28.625 -53.5625 L 28.625 -43.046875 L 36.90625 -43.046875 C 38.132812 -43.046875 39.054688 -43.367188 39.671875 -44.015625 C 40.296875 -44.660156 40.609375 -45.632812 40.609375 -46.9375 L 40.609375 -49.65625 C 40.609375 -50.957031 40.296875 -51.929688 39.671875 -52.578125 C 39.054688 -53.234375 38.132812 -53.5625 36.90625 -53.5625 Z M 28.625 -28.046875 L 28.625 -16.546875 L 41.28125 -16.546875 C 42.519531 -16.546875 43.445312 -16.867188 44.0625 -17.515625 C 44.675781 -18.171875 44.984375 -19.148438 44.984375 -20.453125 L 44.984375 -24.25 C 44.984375 -25.539062 44.675781 -26.492188 44.0625 -27.109375 C 43.445312 -27.734375 42.519531 -28.046875 41.28125 -28.046875 Z M 28.625 -28.046875 "/></g></g></g><g fill="#000000" fill-opacity="1"><g transform="translate(8.462327, 77.003689)"><g><path d="M 47.609375 0 L 10.21875 0 C 8.988281 0 8.097656 -0.273438 7.546875 -0.828125 C 6.992188 -1.378906 6.71875 -2.269531 6.71875 -3.5 L 6.71875 -66.609375 C 6.71875 -67.835938 6.992188 -68.726562 7.546875 -69.28125 C 8.097656 -69.832031 8.988281 -70.109375 10.21875 -70.109375 L 41.28125 -70.109375 C 47.644531 -70.109375 52.351562 -68.890625 55.40625 -66.453125 C 58.457031 -64.023438 59.984375 -60.28125 59.984375 -55.21875 L 59.984375 -50.53125 C 59.984375 -47.8125 59.507812 -45.585938 58.5625 -43.859375 C 57.625 -42.140625 56.179688 -40.859375 54.234375 -40.015625 C 58.390625 -39.628906 61.472656 -38.203125 63.484375 -35.734375 C 65.492188 -33.265625 66.5 -29.660156 66.5 -24.921875 L 66.5 -15.96875 C 66.5 -10.519531 64.957031 -6.492188 61.875 -3.890625 C 58.789062 -1.296875 54.035156 0 47.609375 0 Z M 28.625 -53.5625 L 28.625 -43.046875 L 36.90625 -43.046875 C 38.132812 -43.046875 39.054688 -43.367188 39.671875 -44.015625 C 40.296875 -44.660156 40.609375 -45.632812 40.609375 -46.9375 L 40.609375 -49.65625 C 40.609375 -50.957031 40.296875 -51.929688 39.671875 -52.578125 C 39.054688 -53.234375 38.132812 -53.5625 36.90625 -53.5625 Z M 28.625 -28.046875 L 28.625 -16.546875 L 41.28125 -16.546875 C 42.519531 -16.546875 43.445312 -16.867188 44.0625 -17.515625 C 44.675781 -18.171875 44.984375 -19.148438 44.984375 -20.453125 L 44.984375 -24.25 C 44.984375 -25.539062 44.675781 -26.492188 44.0625 -27.109375 C 43.445312 -27.734375 42.519531 -28.046875 41.28125 -28.046875 Z M 28.625 -28.046875 "/></g></g></g><g fill="#ff00ff" fill-opacity="1"><g transform="translate(70.304543, 141.837035)"><g><path d="M 39.234375 0 L 8.46875 0 C 7.238281 0 6.347656 -0.273438 5.796875 -0.828125 C 5.242188 -1.378906 4.96875 -2.269531 4.96875 -3.5 L 4.96875 -14.890625 C 4.96875 -16.128906 5.242188 -17.023438 5.796875 -17.578125 C 6.347656 -18.128906 7.238281 -18.40625 8.46875 -18.40625 L 34.671875 -18.40625 C 35.515625 -18.40625 36.144531 -18.679688 36.5625 -19.234375 C 36.988281 -19.785156 37.203125 -20.453125 37.203125 -21.234375 C 37.203125 -22.335938 36.988281 -23.144531 36.5625 -23.65625 C 36.144531 -24.175781 35.515625 -24.46875 34.671875 -24.53125 L 20.0625 -26.578125 C 15.519531 -27.234375 11.867188 -28.726562 9.109375 -31.0625 C 6.347656 -33.394531 4.96875 -37.289062 4.96875 -42.75 L 4.96875 -52.96875 C 4.96875 -58.488281 6.75 -62.722656 10.3125 -65.671875 C 13.882812 -68.628906 18.820312 -70.109375 25.125 -70.109375 L 52.390625 -70.109375 C 53.617188 -70.109375 54.507812 -69.832031 55.0625 -69.28125 C 55.613281 -68.726562 55.890625 -67.835938 55.890625 -66.609375 L 55.890625 -55.015625 C 55.890625 -53.785156 55.613281 -52.894531 55.0625 -52.34375 C 54.507812 -51.789062 53.617188 -51.515625 52.390625 -51.515625 L 29.703125 -51.515625 C 28.859375 -51.515625 28.207031 -51.238281 27.75 -50.6875 C 27.289062 -50.132812 27.0625 -49.4375 27.0625 -48.59375 C 27.0625 -47.75 27.289062 -47.035156 27.75 -46.453125 C 28.207031 -45.867188 28.859375 -45.539062 29.703125 -45.46875 L 44.203125 -43.53125 C 48.753906 -42.875 52.425781 -41.378906 55.21875 -39.046875 C 58.007812 -36.710938 59.40625 -32.816406 59.40625 -27.359375 L 59.40625 -17.140625 C 59.40625 -11.617188 57.601562 -7.378906 54 -4.421875 C 50.394531 -1.472656 45.472656 0 39.234375 0 Z M 39.234375 0 "/></g></g></g><g fill="#00ffff" fill-opacity="1"><g transform="translate(75.379101, 137.104929)"><g><path d="M 39.234375 0 L 8.46875 0 C 7.238281 0 6.347656 -0.273438 5.796875 -0.828125 C 5.242188 -1.378906 4.96875 -2.269531 4.96875 -3.5 L 4.96875 -14.890625 C 4.96875 -16.128906 5.242188 -17.023438 5.796875 -17.578125 C 6.347656 -18.128906 7.238281 -18.40625 8.46875 -18.40625 L 34.671875 -18.40625 C 35.515625 -18.40625 36.144531 -18.679688 36.5625 -19.234375 C 36.988281 -19.785156 37.203125 -20.453125 37.203125 -21.234375 C 37.203125 -22.335938 36.988281 -23.144531 36.5625 -23.65625 C 36.144531 -24.175781 35.515625 -24.46875 34.671875 -24.53125 L 20.0625 -26.578125 C 15.519531 -27.234375 11.867188 -28.726562 9.109375 -31.0625 C 6.347656 -33.394531 4.96875 -37.289062 4.96875 -42.75 L 4.96875 -52.96875 C 4.96875 -58.488281 6.75 -62.722656 10.3125 -65.671875 C 13.882812 -68.628906 18.820312 -70.109375 25.125 -70.109375 L 52.390625 -70.109375 C 53.617188 -70.109375 54.507812 -69.832031 55.0625 -69.28125 C 55.613281 -68.726562 55.890625 -67.835938 55.890625 -66.609375 L 55.890625 -55.015625 C 55.890625 -53.785156 55.613281 -52.894531 55.0625 -52.34375 C 54.507812 -51.789062 53.617188 -51.515625 52.390625 -51.515625 L 29.703125 -51.515625 C 28.859375 -51.515625 28.207031 -51.238281 27.75 -50.6875 C 27.289062 -50.132812 27.0625 -49.4375 27.0625 -48.59375 C 27.0625 -47.75 27.289062 -47.035156 27.75 -46.453125 C 28.207031 -45.867188 28.859375 -45.539062 29.703125 -45.46875 L 44.203125 -43.53125 C 48.753906 -42.875 52.425781 -41.378906 55.21875 -39.046875 C 58.007812 -36.710938 59.40625 -32.816406 59.40625 -27.359375 L 59.40625 -17.140625 C 59.40625 -11.617188 57.601562 -7.378906 54 -4.421875 C 50.394531 -1.472656 45.472656 0 39.234375 0 Z M 39.234375 0 "/></g></g></g><g fill="#000000" fill-opacity="1"><g transform="translate(72.841821, 139.470981)"><g><path d="M 39.234375 0 L 8.46875 0 C 7.238281 0 6.347656 -0.273438 5.796875 -0.828125 C 5.242188 -1.378906 4.96875 -2.269531 4.96875 -3.5 L 4.96875 -14.890625 C 4.96875 -16.128906 5.242188 -17.023438 5.796875 -17.578125 C 6.347656 -18.128906 7.238281 -18.40625 8.46875 -18.40625 L 34.671875 -18.40625 C 35.515625 -18.40625 36.144531 -18.679688 36.5625 -19.234375 C 36.988281 -19.785156 37.203125 -20.453125 37.203125 -21.234375 C 37.203125 -22.335938 36.988281 -23.144531 36.5625 -23.65625 C 36.144531 -24.175781 35.515625 -24.46875 34.671875 -24.53125 L 20.0625 -26.578125 C 15.519531 -27.234375 11.867188 -28.726562 9.109375 -31.0625 C 6.347656 -33.394531 4.96875 -37.289062 4.96875 -42.75 L 4.96875 -52.96875 C 4.96875 -58.488281 6.75 -62.722656 10.3125 -65.671875 C 13.882812 -68.628906 18.820312 -70.109375 25.125 -70.109375 L 52.390625 -70.109375 C 53.617188 -70.109375 54.507812 -69.832031 55.0625 -69.28125 C 55.613281 -68.726562 55.890625 -67.835938 55.890625 -66.609375 L 55.890625 -55.015625 C 55.890625 -53.785156 55.613281 -52.894531 55.0625 -52.34375 C 54.507812 -51.789062 53.617188 -51.515625 52.390625 -51.515625 L 29.703125 -51.515625 C 28.859375 -51.515625 28.207031 -51.238281 27.75 -50.6875 C 27.289062 -50.132812 27.0625 -49.4375 27.0625 -48.59375 C 27.0625 -47.75 27.289062 -47.035156 27.75 -46.453125 C 28.207031 -45.867188 28.859375 -45.539062 29.703125 -45.46875 L 44.203125 -43.53125 C 48.753906 -42.875 52.425781 -41.378906 55.21875 -39.046875 C 58.007812 -36.710938 59.40625 -32.816406 59.40625 -27.359375 L 59.40625 -17.140625 C 59.40625 -11.617188 57.601562 -7.378906 54 -4.421875 C 50.394531 -1.472656 45.472656 0 39.234375 0 Z M 39.234375 0 "/></g></g></g></svg>