<svg xmlns="http://www.w3.org/2000/svg" xmlns:xlink="http://www.w3.org/1999/xlink" width="300" zoomAndPan="magnify" viewBox="0 0 224.87999 52.499999" height="70" preserveAspectRatio="xMidYMid meet" version="1.0"><defs><g/></defs><g fill="#ffffff" fill-opacity="1"><g transform="translate(5.239897, 41.086435)"><g><path d="M 1.421875 -32.09375 L 10.125 -32.09375 C 12.46875 -32.09375 14.164062 -31.519531 15.21875 -30.375 C 16.28125 -29.226562 16.8125 -27.359375 16.8125 -24.765625 L 16.8125 -23.34375 C 16.8125 -20.28125 15.71875 -18.453125 13.53125 -17.859375 C 14.875 -17.503906 15.816406 -16.691406 16.359375 -15.421875 C 16.910156 -14.160156 17.1875 -12.484375 17.1875 -10.390625 C 17.1875 -6.972656 16.675781 -4.382812 15.65625 -2.625 C 14.632812 -0.875 12.789062 0 10.125 0 L 1.421875 0 Z M 9 -20.03125 C 9.550781 -20.03125 9.925781 -20.234375 10.125 -20.640625 C 10.320312 -21.046875 10.421875 -21.625 10.421875 -22.375 L 10.421875 -25.59375 C 10.421875 -26.632812 9.960938 -27.15625 9.046875 -27.15625 L 7.703125 -27.15625 L 7.703125 -20.03125 Z M 8.328125 -5.640625 C 9.992188 -5.640625 10.828125 -6.4375 10.828125 -8.03125 L 10.828125 -12.03125 C 10.828125 -13 10.679688 -13.734375 10.390625 -14.234375 C 10.109375 -14.734375 9.609375 -14.984375 8.890625 -14.984375 L 7.703125 -14.984375 L 7.703125 -5.671875 Z M 8.328125 -5.640625 "/></g></g></g><g fill="#ffffff" fill-opacity="1"><g transform="translate(23.131984, 41.086435)"><g><path d="M 1.421875 -32.09375 L 11.28125 -32.09375 C 12.851562 -32.09375 14.066406 -31.738281 14.921875 -31.03125 C 15.785156 -30.320312 16.363281 -29.320312 16.65625 -28.03125 C 16.957031 -26.75 17.109375 -25.113281 17.109375 -23.125 C 17.109375 -21.300781 16.867188 -19.878906 16.390625 -18.859375 C 15.921875 -17.835938 15.101562 -17.128906 13.9375 -16.734375 C 14.90625 -16.535156 15.609375 -16.050781 16.046875 -15.28125 C 16.484375 -14.507812 16.703125 -13.460938 16.703125 -12.140625 L 16.625 0 L 10.34375 0 L 10.34375 -12.546875 C 10.34375 -13.441406 10.164062 -14.015625 9.8125 -14.265625 C 9.46875 -14.515625 8.835938 -14.640625 7.921875 -14.640625 L 7.921875 0 L 1.421875 0 Z M 9.484375 -20.21875 C 10.378906 -20.21875 10.828125 -21.1875 10.828125 -23.125 C 10.828125 -23.96875 10.789062 -24.601562 10.71875 -25.03125 C 10.644531 -25.457031 10.507812 -25.75 10.3125 -25.90625 C 10.113281 -26.070312 9.828125 -26.15625 9.453125 -26.15625 L 7.953125 -26.15625 L 7.953125 -20.21875 Z M 9.484375 -20.21875 "/></g></g></g><g fill="#ffffff" fill-opacity="1"><g transform="translate(40.949375, 41.086435)"><g><path d="M 8.859375 0.296875 C 6.210938 0.296875 4.25 -0.445312 2.96875 -1.9375 C 1.6875 -3.4375 1.046875 -5.65625 1.046875 -8.59375 L 1.046875 -32.09375 L 7.28125 -32.09375 L 7.28125 -8.859375 C 7.28125 -7.835938 7.378906 -7.039062 7.578125 -6.46875 C 7.785156 -5.894531 8.210938 -5.609375 8.859375 -5.609375 C 9.503906 -5.609375 9.925781 -5.882812 10.125 -6.4375 C 10.320312 -7 10.421875 -7.804688 10.421875 -8.859375 L 10.421875 -32.09375 L 16.65625 -32.09375 L 16.65625 -8.59375 C 16.65625 -5.65625 16.015625 -3.4375 14.734375 -1.9375 C 13.453125 -0.445312 11.492188 0.296875 8.859375 0.296875 Z M 8.859375 0.296875 "/></g></g></g><g fill="#ffffff" fill-opacity="1"><g transform="translate(58.654695, 41.086435)"><g><path d="M 1.421875 0 L 1.421875 -32.09375 L 8.03125 -32.09375 L 10.984375 -16.734375 L 10.984375 -32.09375 L 17.1875 -32.09375 L 17.1875 0 L 10.90625 0 L 7.703125 -16.0625 L 7.703125 0 Z M 1.421875 0 "/></g></g></g><g fill="#ffffff" fill-opacity="1"><g transform="translate(77.256491, 41.086435)"><g><path d="M 9.078125 0.296875 C 6.484375 0.296875 4.515625 -0.492188 3.171875 -2.078125 C 1.828125 -3.660156 1.15625 -5.878906 1.15625 -8.734375 L 1.15625 -24.015625 C 1.15625 -26.785156 1.828125 -28.875 3.171875 -30.28125 C 4.515625 -31.6875 6.484375 -32.390625 9.078125 -32.390625 C 11.671875 -32.390625 13.640625 -31.6875 14.984375 -30.28125 C 16.328125 -28.875 17 -26.785156 17 -24.015625 L 17 -8.734375 C 17 -5.847656 16.328125 -3.617188 14.984375 -2.046875 C 13.640625 -0.484375 11.671875 0.296875 9.078125 0.296875 Z M 9.078125 -5.609375 C 9.648438 -5.609375 10.035156 -5.851562 10.234375 -6.34375 C 10.429688 -6.84375 10.53125 -7.539062 10.53125 -8.4375 L 10.53125 -24.140625 C 10.53125 -24.835938 10.4375 -25.398438 10.25 -25.828125 C 10.0625 -26.265625 9.679688 -26.484375 9.109375 -26.484375 C 8.046875 -26.484375 7.515625 -25.675781 7.515625 -24.0625 L 7.515625 -8.40625 C 7.515625 -7.488281 7.625 -6.789062 7.84375 -6.3125 C 8.070312 -5.84375 8.484375 -5.609375 9.078125 -5.609375 Z M 9.078125 -5.609375 "/></g></g></g><g fill="#ffffff" fill-opacity="1"><g transform="translate(95.410059, 41.086435)"><g/></g></g><g fill="#ffffff" fill-opacity="1"><g transform="translate(104.150666, 41.086435)"><g><path d="M 9.046875 0.296875 C 6.128906 0.296875 4.019531 -0.421875 2.71875 -1.859375 C 1.425781 -3.304688 0.78125 -5.640625 0.78125 -8.859375 L 0.78125 -12 L 7.09375 -12 L 7.09375 -8 C 7.09375 -6.40625 7.601562 -5.609375 8.625 -5.609375 C 9.195312 -5.609375 9.59375 -5.773438 9.8125 -6.109375 C 10.039062 -6.441406 10.15625 -7.007812 10.15625 -7.8125 C 10.15625 -8.851562 10.03125 -9.71875 9.78125 -10.40625 C 9.539062 -11.09375 9.222656 -11.664062 8.828125 -12.125 C 8.441406 -12.582031 7.753906 -13.296875 6.765625 -14.265625 L 4 -17.03125 C 1.851562 -19.125 0.78125 -21.441406 0.78125 -23.984375 C 0.78125 -26.722656 1.410156 -28.804688 2.671875 -30.234375 C 3.929688 -31.671875 5.769531 -32.390625 8.1875 -32.390625 C 11.070312 -32.390625 13.148438 -31.625 14.421875 -30.09375 C 15.691406 -28.5625 16.328125 -26.164062 16.328125 -22.90625 L 9.78125 -22.90625 L 9.75 -25.109375 C 9.75 -25.523438 9.628906 -25.859375 9.390625 -26.109375 C 9.160156 -26.359375 8.832031 -26.484375 8.40625 -26.484375 C 7.90625 -26.484375 7.53125 -26.347656 7.28125 -26.078125 C 7.03125 -25.804688 6.90625 -25.429688 6.90625 -24.953125 C 6.90625 -23.910156 7.503906 -22.828125 8.703125 -21.703125 L 12.4375 -18.125 C 13.3125 -17.269531 14.035156 -16.460938 14.609375 -15.703125 C 15.179688 -14.941406 15.640625 -14.046875 15.984375 -13.015625 C 16.335938 -11.984375 16.515625 -10.757812 16.515625 -9.34375 C 16.515625 -6.175781 15.929688 -3.773438 14.765625 -2.140625 C 13.609375 -0.515625 11.703125 0.296875 9.046875 0.296875 Z M 9.046875 0.296875 "/></g></g></g><g fill="#ffffff" fill-opacity="1"><g transform="translate(121.3704, 41.086435)"><g><path d="M 1.015625 0 L 1.015625 -5.453125 L 7.546875 -5.453125 L 7.546875 0 Z M 1.015625 0 "/></g></g></g><g fill="#ffffff" fill-opacity="1"><g transform="translate(129.92424, 41.086435)"><g/></g></g><g fill="#ffffff" fill-opacity="1"><g transform="translate(138.664847, 41.086435)"><g><path d="M 1.421875 -32.09375 L 10.125 -32.09375 C 12.46875 -32.09375 14.164062 -31.519531 15.21875 -30.375 C 16.28125 -29.226562 16.8125 -27.359375 16.8125 -24.765625 L 16.8125 -23.34375 C 16.8125 -20.28125 15.71875 -18.453125 13.53125 -17.859375 C 14.875 -17.503906 15.816406 -16.691406 16.359375 -15.421875 C 16.910156 -14.160156 17.1875 -12.484375 17.1875 -10.390625 C 17.1875 -6.972656 16.675781 -4.382812 15.65625 -2.625 C 14.632812 -0.875 12.789062 0 10.125 0 L 1.421875 0 Z M 9 -20.03125 C 9.550781 -20.03125 9.925781 -20.234375 10.125 -20.640625 C 10.320312 -21.046875 10.421875 -21.625 10.421875 -22.375 L 10.421875 -25.59375 C 10.421875 -26.632812 9.960938 -27.15625 9.046875 -27.15625 L 7.703125 -27.15625 L 7.703125 -20.03125 Z M 8.328125 -5.640625 C 9.992188 -5.640625 10.828125 -6.4375 10.828125 -8.03125 L 10.828125 -12.03125 C 10.828125 -13 10.679688 -13.734375 10.390625 -14.234375 C 10.109375 -14.734375 9.609375 -14.984375 8.890625 -14.984375 L 7.703125 -14.984375 L 7.703125 -5.671875 Z M 8.328125 -5.640625 "/></g></g></g><g fill="#ffffff" fill-opacity="1"><g transform="translate(156.556934, 41.086435)"><g><path d="M 0.5625 0 L 3.65625 -32.09375 L 14.53125 -32.09375 L 17.59375 0 L 11.5 0 L 11.0625 -5.1875 L 7.171875 -5.1875 L 6.796875 0 Z M 7.65625 -10.3125 L 10.578125 -10.3125 L 9.15625 -26.640625 L 8.859375 -26.640625 Z M 7.65625 -10.3125 "/></g></g></g><g fill="#ffffff" fill-opacity="1"><g transform="translate(174.673145, 41.086435)"><g><path d="M 1.421875 0 L 1.421875 -32.09375 L 7.8125 -32.09375 L 7.8125 -20.625 L 10.828125 -20.625 L 10.828125 -32.09375 L 17.21875 -32.09375 L 17.21875 0 L 10.828125 0 L 10.828125 -14.5625 L 7.8125 -14.5625 L 7.8125 0 Z M 1.421875 0 "/></g></g></g><g fill="#ffffff" fill-opacity="1"><g transform="translate(193.312298, 41.086435)"><g><path d="M 1.421875 -32.09375 L 11.28125 -32.09375 C 12.851562 -32.09375 14.066406 -31.738281 14.921875 -31.03125 C 15.785156 -30.320312 16.363281 -29.320312 16.65625 -28.03125 C 16.957031 -26.75 17.109375 -25.113281 17.109375 -23.125 C 17.109375 -21.300781 16.867188 -19.878906 16.390625 -18.859375 C 15.921875 -17.835938 15.101562 -17.128906 13.9375 -16.734375 C 14.90625 -16.535156 15.609375 -16.050781 16.046875 -15.28125 C 16.484375 -14.507812 16.703125 -13.460938 16.703125 -12.140625 L 16.625 0 L 10.34375 0 L 10.34375 -12.546875 C 10.34375 -13.441406 10.164062 -14.015625 9.8125 -14.265625 C 9.46875 -14.515625 8.835938 -14.640625 7.921875 -14.640625 L 7.921875 0 L 1.421875 0 Z M 9.484375 -20.21875 C 10.378906 -20.21875 10.828125 -21.1875 10.828125 -23.125 C 10.828125 -23.96875 10.789062 -24.601562 10.71875 -25.03125 C 10.644531 -25.457031 10.507812 -25.75 10.3125 -25.90625 C 10.113281 -26.070312 9.828125 -26.15625 9.453125 -26.15625 L 7.953125 -26.15625 L 7.953125 -20.21875 Z M 9.484375 -20.21875 "/></g></g></g><g fill="#ffffff" fill-opacity="1"><g transform="translate(211.129689, 41.086435)"><g><path d="M 1.125 0 L 1.125 -32.09375 L 7.328125 -32.09375 L 7.328125 0 Z M 1.125 0 "/></g></g></g></svg>